HIERARCHY
ROOT Hips
{
	OFFSET	0.00	0.00	0.00
	CHANNELS 6 Xposition Yposition Zposition Zrotation Xrotation Yrotation
	JOINT LeftUpLeg
	{
		OFFSET	 0.126116	-0.014019	-0.065224
		CHANNELS 3 Zrotation Xrotation Yrotation
		JOINT LeftLeg
		{
			OFFSET	 0.000000	 0.000000	 0.569914
			CHANNELS 3 Zrotation Xrotation Yrotation
			JOINT LeftFoot
			{
				OFFSET	 0.000000	 0.000000	 0.544423
				CHANNELS 3 Zrotation Xrotation Yrotation
				JOINT LeftToeBase
				{
					OFFSET	 0.000000	 0.000000	 0.207117
					CHANNELS 3 Zrotation Xrotation Yrotation
					End Site
					{
						OFFSET	 0.000000	 0.000000	 0.207117
					}
				}
			}
		}
	}
	JOINT RightUpLeg
	{
		OFFSET	-0.124023	-0.008373	-0.065224
		CHANNELS 3 Zrotation Xrotation Yrotation
		JOINT RightLeg
		{
			OFFSET	 0.000000	 0.000000	 0.570047
			CHANNELS 3 Zrotation Xrotation Yrotation
			JOINT RightFoot
			{
				OFFSET	 0.000000	 0.000000	 0.544354
				CHANNELS 3 Zrotation Xrotation Yrotation
				JOINT RightToeBase
				{
					OFFSET	 0.000000	 0.000000	 0.207540
					CHANNELS 3 Zrotation Xrotation Yrotation
					End Site
					{
						OFFSET	 0.000000	 0.000000	 0.207540
					}
				}
			}
		}
	}
	JOINT Spine
	{
		OFFSET	 0.000184	-0.007763	 0.117403
		CHANNELS 3 Zrotation Xrotation Yrotation
		JOINT Spine1
		{
			OFFSET	 0.000000	 0.000000	 0.137269
			CHANNELS 3 Zrotation Xrotation Yrotation
			JOINT Spine2
			{
				OFFSET	 0.000000	 0.000000	 0.156879
				CHANNELS 3 Zrotation Xrotation Yrotation
				JOINT LeftShoulder
				{
					OFFSET	 0.080501	-0.002496	 0.160144
					CHANNELS 3 Zrotation Xrotation Yrotation
					JOINT LeftArm
					{
						OFFSET	 0.000000	 0.000000	 0.164363
						CHANNELS 3 Zrotation Xrotation Yrotation
						JOINT LeftForeArm
						{
							OFFSET	 0.000000	 0.000000	 0.364576
							CHANNELS 3 Zrotation Xrotation Yrotation
							JOINT LeftHand
							{
								OFFSET	 0.000000	 0.000000	 0.360812
								CHANNELS 3 Zrotation Xrotation Yrotation
								JOINT LeftHandIndex1
								{
									OFFSET	 0.000000	 0.000000	 0.086006
									CHANNELS 3 Zrotation Xrotation Yrotation
									JOINT LeftHandIndex2
									{
										OFFSET	 0.000000	 0.000000	 0.047237
										CHANNELS 3 Zrotation Xrotation Yrotation
										JOINT LeftHandIndex3
										{
											OFFSET	-0.004284	-0.000551	 0.038165
											CHANNELS 3 Zrotation Xrotation Yrotation
											End Site
											{
												OFFSET	-0.004284	-0.000551	 0.038165
											}
										}
									}
								}
							}
						}
					}
				}
				JOINT Neck
				{
					OFFSET	 0.000000	 0.000000	 0.176489
					CHANNELS 3 Zrotation Xrotation Yrotation
					JOINT Head
					{
						OFFSET	 0.000000	-0.001747	 0.077940
						CHANNELS 3 Zrotation Xrotation Yrotation
						End Site
						{
							OFFSET	 0.000000	-0.001747	 0.077940
						}
					}
				}
				JOINT RightShoulder
				{
					OFFSET	-0.080363	 0.000306	 0.159706
					CHANNELS 3 Zrotation Xrotation Yrotation
					JOINT RightArm
					{
						OFFSET	 0.000000	 0.000000	 0.164196
						CHANNELS 3 Zrotation Xrotation Yrotation
						JOINT RightForeArm
						{
							OFFSET	 0.000000	 0.000000	 0.365611
							CHANNELS 3 Zrotation Xrotation Yrotation
							JOINT RightHand
							{
								OFFSET	 0.000000	 0.000000	 0.360648
								CHANNELS 3 Zrotation Xrotation Yrotation
								JOINT RightHandIndex1
								{
									OFFSET	 0.000000	 0.000000	 0.069977
									CHANNELS 3 Zrotation Xrotation Yrotation
									JOINT RightHandIndex2
									{
										OFFSET	 0.000000	 0.000000	 0.052305
										CHANNELS 3 Zrotation Xrotation Yrotation
										JOINT RightHandIndex3
										{
											OFFSET	 0.009002	-0.000782	 0.042196
											CHANNELS 3 Zrotation Xrotation Yrotation
											End Site
											{
												OFFSET	 0.009002	-0.000782	 0.042196
											}
										}
									}
								}
							}
						}
					}
				}
			}
		}
	}
}
MOTION
Frames:    7
Frame Time: 0.03333334
-0.713403	-0.033389	 1.284961	 169.764300	-8.581642	-1.080714	-11.441110	 2.122817	-174.858100	-1.940344	-29.716180	-1.688857	-15.151250	 76.422540	 4.136569	-2.385833	 28.452760	 0.000004	-13.248630	-1.317309	-171.316500	 10.238560	-32.543250	 5.671012	-4.360582	 81.520970	 4.542601	 2.384659	 28.388700	-0.000001	 18.902740	 3.726468	-13.431550	 8.646232	 3.612194	-0.877723	-1.289340	 7.426975	 0.572531	-91.776060	 78.527400	 179.999900	-19.767300	 50.558900	-19.620190	-25.640680	 20.298820	-69.862820	-36.114490	-31.058710	-20.984640	-4.130354	 21.526190	 0.991307	-5.167926	 0.731697	 3.519349	-1.378229	 35.397820	-2.634230	 14.647780	 5.679180	-2.935305	 5.629015	-13.833520	-3.487896	 89.782090	 78.203870	-180.000000	-48.212620	 1.190139	 94.991290	 10.979240	 1.082618	 130.294200	-11.570710	-4.701850	-5.190256	 5.716295	 19.173350	-3.684826	 5.027458	 0.246833	-9.377971	-2.350882	 35.473990	 5.254307
-0.713477	-0.033769	 1.284651	 169.494100	-8.572725	-0.845982	-11.558000	 2.043793	-174.903700	-1.826698	-29.806030	-1.636868	-14.946290	 76.282260	 3.833685	-2.385833	 28.452760	 0.000004	-13.449850	-1.478794	-171.340400	 10.373540	-32.599230	 5.754115	-4.066959	 81.424880	 4.128621	 2.384659	 28.388700	-0.000001	 19.473860	 3.420112	-13.957810	 9.035296	 3.901155	-1.143845	-1.390089	 7.081524	 1.350926	-91.776180	 78.527400	-180.000000	-22.513110	 48.361850	-19.749580	-25.500570	 20.649110	-70.522250	-36.602970	-31.141390	-21.280850	-4.130354	 21.526190	 0.991307	-5.167926	 0.731697	 3.519349	-1.378229	 35.397820	-2.634230	 14.798170	 5.276746	-3.524293	 5.511402	-14.053900	-4.524199	 89.782100	 78.203830	 180.000000	-48.628630	 1.085299	 94.980880	 11.303910	 0.706561	 130.012500	-12.701460	-4.190216	-4.900806	 5.716295	 19.173350	-3.684826	 5.027458	 0.246833	-9.377971	-2.350882	 35.473990	 5.254307
-0.712907	-0.034185	 1.284193	 169.264300	-8.314102	-0.623894	-11.837060	 1.608330	-174.886700	-1.691888	-29.910320	-1.574680	-14.355210	 76.220360	 3.145843	-2.385833	 28.452760	 0.000004	-13.706890	-1.987355	-171.334700	 10.546540	-32.709700	 5.867148	-3.227153	 81.277210	 3.190985	 2.384659	 28.388700	-0.000001	 20.088010	 2.515917	-14.191380	 9.543283	 4.792075	-1.095905	-1.412459	 6.364981	 1.469367	-91.776250	 78.527380	-179.999900	-26.433290	 45.731940	-20.229460	-25.323380	 20.960160	-71.227650	-37.286470	-31.346610	-21.749980	-4.130354	 21.526190	 0.991307	-5.167926	 0.731697	 3.519349	-1.378229	 35.397820	-2.634230	 14.931680	 5.176369	-3.989595	 5.413965	-14.692770	-5.002419	 89.782070	 78.203870	-180.000000	-48.715800	 0.892006	 94.889980	 11.725120	 0.206924	 129.728500	-14.163420	-3.442622	-4.830001	 5.716295	 19.173350	-3.684826	 5.027458	 0.246833	-9.377971	-2.350882	 35.473990	 5.254307
-0.712196	-0.034458	 1.283808	 169.083200	-7.960945	-0.443689	-12.165640	 1.101784	-174.884700	-1.566340	-29.985790	-1.515385	-13.837410	 76.221690	 2.561892	-2.385833	 28.452760	 0.000004	-13.966700	-2.567484	-171.359200	 10.712250	-32.829750	 5.978295	-2.491878	 81.162220	 2.399617	 2.384659	 28.388700	-0.000001	 20.668260	 1.431436	-14.220020	 10.086850	 5.732478	-1.031708	-1.414859	 5.649518	 1.313999	-91.776160	 78.527380	 180.000000	-30.054210	 43.380210	-21.383290	-25.329970	 21.149610	-71.360600	-37.970990	-31.578210	-22.235910	-4.130354	 21.526190	 0.991307	-5.167926	 0.731697	 3.519349	-1.378229	 35.397820	-2.634230	 15.038640	 5.237974	-4.325572	 5.341075	-15.439970	-5.138809	 89.782180	 78.203890	 179.999900	-48.557990	 0.715174	 94.901010	 12.127280	-0.280019	 129.425500	-15.569590	-2.686648	-5.053533	 5.716295	 19.173350	-3.684826	 5.027458	 0.246833	-9.377971	-2.350882	 35.473990	 5.254307
-0.711504	-0.034523	 1.283547	 168.930700	-7.571121	-0.411194	-12.481460	 0.674745	-174.859200	-1.464642	-29.940100	-1.462431	-13.342720	 76.155590	 2.038213	-2.385833	 28.452760	 0.000004	-14.168110	-3.164363	-171.369900	 10.861670	-33.039670	 6.095575	-1.957679	 81.252950	 1.854077	 2.384659	 28.388700	-0.000001	 21.245690	 0.331910	-14.135330	 10.650820	 6.528480	-0.940249	-1.423280	 5.053381	 1.066658	-91.776180	 78.527350	-180.000000	-32.982630	 41.556430	-23.009880	-25.471870	 21.236740	-71.071870	-38.575990	-31.759110	-22.628740	-4.130354	 21.526190	 0.991307	-5.167926	 0.731697	 3.519349	-1.378229	 35.397820	-2.634230	 15.097140	 5.452145	-4.560747	 5.307296	-16.248150	-5.128921	 89.782160	 78.203870	 180.000000	-48.041990	 0.518693	 95.056240	 12.563650	-0.821282	 129.067600	-16.884900	-1.841572	-5.654261	 5.716295	 19.173350	-3.684826	 5.027458	 0.246833	-9.377971	-2.350882	 35.473990	 5.254307
-0.710745	-0.034490	 1.283372	 168.773700	-7.122218	-0.412255	-12.831090	 0.248566	-174.872000	-1.359953	-29.838720	-1.405766	-12.966140	 76.070660	 1.656659	-2.385833	 28.452760	 0.000004	-14.382620	-3.820327	-171.423900	 11.023320	-33.311830	 6.230829	-1.603364	 81.441700	 1.516367	 2.384659	 28.388700	-0.000001	 21.909330	-0.901382	-13.981350	 11.319190	 7.275180	-0.855036	-1.441559	 4.497797	 0.769156	-91.776150	 78.527360	 180.000000	-35.846650	 39.792670	-25.171120	-25.652860	 21.306950	-70.675350	-39.218190	-31.941770	-23.031040	-4.130354	 21.526190	 0.991307	-5.167926	 0.731697	 3.519349	-1.378229	 35.397820	-2.634230	 15.149770	 5.719666	-4.791165	 5.280313	-17.135250	-5.083397	 89.782050	 78.203900	-180.000000	-47.305280	 0.421263	 95.427000	 13.035990	-1.425158	 128.637600	-18.196050	-0.799970	-6.599227	 5.716295	 19.173350	-3.684826	 5.027458	 0.246833	-9.377971	-2.350882	 35.473990	 5.254307
-0.710344	-0.034338	 1.283353	 168.591500	-6.675586	-0.401736	-13.222400	-0.126365	-174.896300	-1.237178	-29.719900	-1.339682	-12.678430	 75.949230	 1.363718	-2.385833	 28.452760	 0.000004	-14.610470	-4.432747	-171.492900	 11.197850	-33.560960	 6.370828	-1.433698	 81.631630	 1.366011	 2.384659	 28.388700	-0.000001	 22.660080	-2.153893	-13.882100	 12.064740	 7.970222	-0.945220	-1.492989	 3.949362	 0.656021	-91.776180	 78.527360	-180.000000	-38.460700	 37.970220	-28.021110	-26.051630	 21.273840	-69.659770	-39.746280	-32.038200	-23.266980	-4.130354	 21.526190	 0.991307	-5.167926	 0.731697	 3.519349	-1.378229	 35.397820	-2.634230	 15.159090	 5.844729	-4.996224	 5.240256	-17.917630	-5.197819	 89.782050	 78.203870	-179.999900	-46.418960	 0.316933	 95.907520	 13.596870	-2.174139	 128.033400	-19.642040	 0.540498	-7.581903	 5.716295	 19.173350	-3.684826	 5.027458	 0.246833	-9.377971	-2.350882	 35.473990	 5.254307
